<svg width="150" height="150" viewBox="0 0 150 150" fill="none" xmlns="http://www.w3.org/2000/svg">
<g clip-path="url(#clip0_803_22853)">
<mask id="mask0_803_22853" style="mask-type:alpha" maskUnits="userSpaceOnUse" x="-7" y="13" width="119" height="132">
<path d="M19.7891 138.145C19.7891 138.145 37.6191 61.8355 102.709 39.3555" stroke="url(#paint0_linear_803_22853)" stroke-width="55" stroke-miterlimit="10"/>
</mask>
<g mask="url(#mask0_803_22853)">
<path d="M19.7891 138.145C19.7891 138.145 37.6191 61.8355 102.709 39.3555" stroke="#00AA1E" stroke-width="55" stroke-miterlimit="10"/>
</g>
<path d="M102.5 67C117.684 67 130 54.6845 130 39.5C130 24.3155 117.684 12 102.5 12C87.3155 12 75 24.3155 75 39.5C75 54.6845 87.3155 67 102.5 67Z" fill="#00AA1E"/>
<path fill-rule="evenodd" clip-rule="evenodd" d="M118.39 32.4403L98.4398 51.8003L87.5898 41.0803L90.3998 38.2403L98.4598 46.2103L115.6 29.5703L118.39 32.4403Z" fill="white"/>
</g>
<defs>
<linearGradient id="paint0_linear_803_22853" x1="25.6837" y1="129.623" x2="96.7303" y2="39.3555" gradientUnits="userSpaceOnUse">
<stop stop-opacity="0"/>
<stop offset="1" stop-opacity="0.6"/>
</linearGradient>
<clipPath id="clip0_803_22853">
<rect width="150" height="150" fill="white"/>
</clipPath>
</defs>
</svg>
