<svg width="24" height="24" viewBox="0 0 24 24" fill="none" xmlns="http://www.w3.org/2000/svg">
<path d="M5.1543 21H3.1543V19H5.1543V21ZM9.1543 21H7.1543V19H9.1543V21ZM13.1543 21H11.1543V19H13.1543V21ZM17.1543 21H15.1543V19H17.1543V21ZM21.1543 19V21H19.1543V19H21.1543ZM5.1543 17H3.1543V15H5.1543V17ZM21.1543 17H19.1543V15H21.1543V17ZM5.1543 13H3.1543V11H5.1543V13ZM21.1543 13H19.1543V11H21.1543V13ZM5.1543 9H3.1543V7H5.1543V9ZM21.1543 9H19.1543V7H21.1543V9ZM5.1543 5H3.1543V3H5.1543V5ZM9.1543 5H7.1543V3H9.1543V5ZM13.1543 5H11.1543V3H13.1543V5ZM17.1543 5H15.1543V3H17.1543V5ZM21.1543 5H19.1543V3H21.1543V5Z" fill="black" fill-opacity="0.96"/>
</svg>
