<svg width="18" height="18" viewBox="0 0 18 18" fill="none" xmlns="http://www.w3.org/2000/svg">
<path d="M10.3315 11.361C9.48077 11.9982 8.42425 12.3756 7.27959 12.3756C4.46515 12.3756 2.18359 10.094 2.18359 7.27959C2.18359 4.46515 4.46515 2.18359 7.27959 2.18359C10.094 2.18359 12.3756 4.46515 12.3756 7.27959C12.3756 8.42425 11.9982 9.48077 11.361 10.3315L15.0744 14.0448L14.0448 15.0744L10.3315 11.361ZM10.9196 7.27959C10.9196 5.26928 9.28991 3.63959 7.27959 3.63959C5.26928 3.63959 3.63959 5.26928 3.63959 7.27959C3.63959 9.28991 5.26928 10.9196 7.27959 10.9196C9.28991 10.9196 10.9196 9.28991 10.9196 7.27959Z" fill="black" fill-opacity="0.64"/>
</svg>
