<svg width="24" height="24" viewBox="0 0 24 24" fill="none" xmlns="http://www.w3.org/2000/svg">
<path d="M13.1549 8.26859C12.7736 8.04843 12.3303 7.96025 11.8938 8.01773C11.4572 8.0752 11.0518 8.27511 10.7405 8.58646C10.4291 8.89781 10.2292 9.30319 10.1717 9.73974C10.1455 9.93866 10.1496 10.139 10.1826 10.3342L8.21038 10.6676C8.14438 10.2771 8.13627 9.87647 8.18865 9.47866C8.30359 8.60557 8.70342 7.7948 9.32612 7.1721C9.94881 6.54941 10.7596 6.14958 11.6327 6.03463C12.5058 5.91969 13.3924 6.09605 14.155 6.53636C14.9177 6.97668 15.5137 7.65634 15.8507 8.46993C16.1877 9.28352 16.2468 10.1856 16.0189 11.0362C15.791 11.8868 15.2888 12.6385 14.5901 13.1746C14.1674 13.4989 13.7908 13.8146 13.5203 14.1461C13.254 14.4725 13.1549 14.736 13.1549 14.9648V15.0013H11.1547V14.9648C11.1547 14.1091 11.5387 13.4108 11.9705 12.8816C12.3982 12.3575 12.9348 11.9235 13.3725 11.5877C13.7218 11.3196 13.9729 10.9438 14.0869 10.5185C14.2008 10.0932 14.1713 9.64217 14.0028 9.23537C13.8343 8.82858 13.5363 8.48875 13.1549 8.26859Z" fill="black" fill-opacity="0.64"/>
<path d="M13.1549 18.0016V16.0014H11.1547V18.0016H13.1549Z" fill="black" fill-opacity="0.64"/>
<path d="M12.1548 22.002C17.6782 22.002 22.1558 17.5244 22.1558 12.001C22.1558 6.47761 17.6782 2 12.1548 2C6.63142 2 2.15381 6.47761 2.15381 12.001C2.15381 17.5244 6.63142 22.002 12.1548 22.002ZM12.1548 20.0018C7.7361 20.0018 4.15401 16.4197 4.15401 12.001C4.15401 7.58229 7.7361 4.0002 12.1548 4.0002C16.5736 4.0002 20.1556 7.58229 20.1556 12.001C20.1556 16.4197 16.5736 20.0018 12.1548 20.0018Z" fill="black" fill-opacity="0.64"/>
</svg>
