<svg width="24" height="24" viewBox="0 0 24 24" fill="none" xmlns="http://www.w3.org/2000/svg">
<path d="M5.15381 21H3.15381V19H5.15381V21ZM9.15381 21H7.15381V19H9.15381V21ZM13.1538 21H11.1538V19H13.1538V21ZM17.1538 21H15.1538V19H17.1538V21ZM21.1538 19V21H19.1538V19H21.1538ZM5.15381 17H3.15381V15H5.15381V17ZM21.1538 17H19.1538V15H21.1538V17ZM5.15381 13H3.15381V11H5.15381V13ZM21.1538 13H19.1538V11H21.1538V13ZM5.15381 9H3.15381V7H5.15381V9ZM21.1538 9H19.1538V7H21.1538V9ZM5.15381 5H3.15381V3H5.15381V5ZM9.15381 5H7.15381V3H9.15381V5ZM13.1538 5H11.1538V3H13.1538V5ZM17.1538 5H15.1538V3H17.1538V5ZM21.1538 5H19.1538V3H21.1538V5Z" fill="black" fill-opacity="0.96"/>
</svg>
